<?xml version="1.0" encoding="utf-8"?>
<!DOCTYPE svg PUBLIC "-//W3C//DTD SVG 1.0//EN" "http://www.w3.org/TR/2001/REC-SVG-20010904/DTD/svg10.dtd">
<svg version="1.0" xmlns="http://www.w3.org/2000/svg" width="500px" height="500px" viewBox="0 0 500 500" preserveAspectRatio="xMidYMid meet">
 <g fill="#e4e2dd">
  <path d="M0 250 l0 -250 250 0 250 0 0 250 0 250 -250 0 -250 0 0 -250z m312.20 45.50 l0.90 -6 1.65 0 1.65 0 0.35 6 0.40 6 1.35 0 c0.90 0 1.45 -0.30 1.65 -0.85 0.10 -0.50 0.40 -1.30 0.60 -1.75 0.25 -0.65 0 -0.85 -1.35 -1 l-1.65 -0.15 -0.15 -5.85 -0.15 -5.90 -2.40 0 -2.45 0 -1.05 5.65 c-1.70 9.40 -1.75 9.85 -1 9.85 0.55 0 0.95 -1.60 1.65 -6z m15.30 5.65 c0 -0.25 0.55 -3.55 1.25 -7.35 0.70 -3.85 1.25 -7.20 1.25 -7.40 0 -0.20 -1 -0.40 -2.15 -0.40 -2.10 0 -2.25 0.10 -3 2 l-0.75 2 1.70 0 c1.65 0 1.70 0.05 1.70 1.90 0 1.80 -0.75 6.80 -1.30 8.75 -0.20 0.55 0 0.85 0.50 0.85 0.45 0 0.80 -0.15 0.80 -0.35z m13.05 -3.15 c0.35 -1.95 0.80 -3.65 1.05 -3.80 0.80 -0.50 0.35 -1.20 -0.80 -1.20 -1.20 0 -1.55 -0.60 -3.55 -6.35 -0.10 -0.35 -0.45 -0.65 -0.75 -0.65 -0.45 0 -0.15 0.85 2.25 6.95 0.75 1.80 0.80 2.70 0.40 5.35 -0.35 2.45 -0.30 3.20 0.15 3.20 0.35 0 0.85 -1.45 1.25 -3.50z m22.95 2.95 c0.80 -0.25 0 -0.30 -2.10 -0.10 l-3.40 0.25 0 -2.15 c0 -1.20 0.35 -4.40 0.85 -7.05 l0.80 -4.90 3.80 -0.05 c4.55 -0.05 3.05 -0.80 -1.75 -0.90 l-3.10 -0.05 -1.05 5.65 c-0.55 3.05 -1.15 6.55 -1.35 7.75 l-0.35 2.10 3.20 -0.05 c1.75 -0.05 3.75 -0.25 4.45 -0.50z m18 -4.20 l4.25 0 0.40 2.40 c0.30 1.45 0.70 2.35 1.15 2.35 0.90 0 0.90 -0.45 -0.30 -7.40 -1.50 -8.70 -1.30 -8.10 -3.20 -8.10 -1.25 0 -1.75 0.30 -2.20 1.20 -0.55 1.20 -0.45 1.25 1.30 1.40 l1.85 0.15 0.15 3.65 0.15 3.60 -3 0 -3 0 -0.15 -1.60 c-0.15 -1.55 -0.25 -1.45 -2.30 2.45 -2.30 4.55 -2.85 6.35 -0.70 2.40 l1.35 -2.50 4.25 0z m18.50 -2.65 l1.20 -7.10 2.90 0 c1.55 0 3 -0.20 3.15 -0.50 0.20 -0.30 -2.10 -0.50 -6.45 -0.50 -4.20 0 -6.80 0.20 -6.80 0.50 0 0.30 1.25 0.50 2.75 0.50 2.65 0 2.75 0.05 2.75 1.40 0 0.75 -0.45 3.80 -1 6.80 -1.20 6.45 -1.20 6.45 -0.40 6.20 0.40 -0.15 1.15 -3.10 1.90 -7.30z m10.25 4.90 l1.25 -2.50 4.25 0 4.20 0 0.30 1.90 c0.50 2.75 0.65 3.10 1.55 3.10 0.60 0 0.75 -0.30 0.55 -1.10 -0.15 -0.65 -0.75 -4.15 -1.40 -7.75 l-1.10 -6.65 -1.65 0 c-1.15 0 -1.85 0.30 -2.20 1 -0.50 0.90 -0.40 1 1.15 1 1.65 0 1.70 0.10 2.05 2.30 0.15 1.30 0.30 3.10 0.30 4 l0 1.70 -2.95 0 -3 0 -0.15 -1.85 c-0.15 -1.80 -0.20 -1.75 -2.55 2.75 -1.35 2.55 -2.30 4.60 -2.15 4.60 0.15 0 0.85 -1.10 1.55 -2.50z m-40 -3.25 c1.30 -2.85 1 -5 -1.10 -7.15 -1 -1 -1.40 -1.35 -0.90 -0.75 0.70 0.90 0.80 1.85 0.70 5.35 -0.20 3.65 -0.35 4.40 -1.45 5.65 l-1.25 1.40 1.60 -1.45 c0.90 -0.80 1.95 -2.20 2.40 -3.05z m-214.35 -30.05 c8.50 -1.70 15.35 -6.55 17.55 -12.45 1.90 -5 2.30 -4.75 -7.40 -4.75 l-8.45 0 -0.35 1.85 c-0.70 3.90 -4.85 6.15 -11.25 6.15 -8.60 0 -12.50 -3.70 -12.50 -11.85 l0 -3.15 20.65 -0.10 20.60 -0.15 0.15 -1.85 c0.10 -1.05 -0.20 -3.85 -0.60 -6.25 -2.35 -13.60 -12.60 -21.20 -28.80 -21.30 -6.60 0 -10.95 0.85 -15.80 3.20 -3.95 1.85 -8.70 6.15 -10.70 9.70 -2.10 3.65 -3.50 9.50 -3.50 14.45 0.05 14.35 8.10 23.90 22.55 26.75 3.75 0.75 13.70 0.60 17.85 -0.25z m65.85 -0.90 c4.75 -1.60 7.70 -3.25 10.50 -5.85 2.60 -2.40 5 -6.85 5.65 -10.30 l0.45 -2.65 -8.10 0 -8.10 0 -0.35 1.90 c-0.40 2.50 -2.10 5.05 -4.30 6.30 -1.25 0.75 -2.85 1.05 -6.25 1.20 -7.10 0.30 -10.20 -0.95 -12.40 -5.05 -1 -1.95 -1.10 -2.75 -1.10 -11.10 0 -8.65 0.05 -9.10 1.25 -11.50 0.95 -1.80 1.85 -2.75 3.50 -3.65 2.05 -1.05 2.70 -1.15 7.50 -1 5.85 0.20 7.70 0.90 9.50 3.40 0.55 0.80 1.20 2.45 1.40 3.60 l0.40 2.15 8.55 0.15 8.60 0.10 -0.30 -1.85 c-1.50 -9.85 -9.75 -16.50 -22.75 -18.45 -11.15 -1.65 -21.85 1.25 -28.45 7.80 -8.45 8.40 -9.70 24.65 -2.65 35.30 3.10 4.65 8.80 8.45 15.25 10.20 3.10 0.85 4.90 1 10.95 0.85 6.30 -0.15 7.75 -0.35 11.25 -1.55z m76 0 c1.95 -0.75 4.70 -2.10 6.10 -3.05 3.45 -2.30 5.10 -2.30 6.85 -0.05 0.70 0.95 2.55 2.35 4.15 3.10 3.75 1.85 10.15 2.25 14.95 0.95 l3.20 -0.85 0 -4.70 0 -4.70 -2.70 0 c-1.90 0 -2.90 -0.25 -3.35 -0.85 -0.55 -0.60 -0.75 -4 -0.95 -14.85 -0.25 -13.35 -0.35 -14.20 -1.45 -16.65 -2.15 -4.90 -6.80 -8.05 -14.85 -10.20 -5.10 -1.35 -16.05 -1.50 -21.70 -0.25 -9.05 1.95 -16 7.45 -16.60 13.10 -0.15 1.40 -0.05 1.45 2.10 1.60 1.25 0.10 5.20 0.05 8.80 -0.15 l6.60 -0.35 0.25 -1.30 c0.50 -2.45 2.85 -3.35 8.95 -3.35 4.60 0 5.50 0.15 6.75 1.05 2.25 1.65 3.20 4 3.05 7.70 l-0.15 3.25 -7.50 0.35 c-14.45 0.65 -21.25 2.45 -26.15 7.10 -6.65 6.20 -5.75 17.75 1.65 22.05 3.95 2.35 5.95 2.75 12.50 2.55 5.05 -0.10 6.55 -0.35 9.50 -1.50z m-231.25 -12.55 l0 -13.25 5.70 0 5.65 0 3.90 7.90 c2.10 4.30 5 10.25 6.35 13.25 l2.55 5.35 10.75 0 c10 0 10.70 -0.05 10.40 -0.85 -0.20 -0.50 -3.40 -6.60 -7.10 -13.50 -7.95 -15 -8.05 -15.35 -4.05 -17.35 3.70 -1.80 7.20 -5.40 9.05 -9.30 1.40 -2.90 1.55 -3.75 1.55 -8 0 -4.10 -0.20 -5.15 -1.35 -7.65 -1.75 -3.75 -5.65 -7.80 -9.40 -9.80 -5.30 -2.85 -7.35 -3.05 -32.10 -3.05 l-22.40 0 0 34.75 0 34.75 10.25 0 10.25 0 0 -13.25z m196 -23.50 l0 -36.75 -9 0 -9 0 0 36.75 0 36.75 9 0 9 0 0 -36.75z m93 10.50 l0 -26.25 -9 0 -9 0 0 26.25 0 26.25 9 0 9 0 0 -26.25z m28.60 8.15 l0.15 -18.15 1.20 -1.70 c3.20 -4.45 12.10 -4.80 14.90 -0.60 1.15 1.70 1.15 1.85 1.15 18.55 0 9.30 0.15 17.60 0.30 18.45 l0.35 1.55 8.65 0 8.65 0 0.15 -17.35 c0.15 -19.50 0.20 -19.80 3.70 -22.45 1.70 -1.30 2.25 -1.45 5.95 -1.45 4.65 0 6.15 0.70 7.45 3.40 0.70 1.55 0.80 4.05 0.80 19.80 l0 18.05 9.05 0 9 0 -0.15 -20.10 c-0.15 -19.60 -0.20 -20.25 -1.30 -22.95 -3 -7.45 -10.90 -11.90 -18.65 -10.45 -4 0.75 -9.60 3.70 -12.45 6.55 -2.80 2.80 -5 3.30 -6 1.40 -2.10 -3.90 -6.70 -7 -11.80 -7.90 -6.05 -1.10 -13.80 1.65 -18.65 6.65 -1.40 1.40 -2.15 1.80 -3.60 1.80 l-1.80 0 -0.35 -2.60 c-0.70 -5.35 0.05 -4.90 -7.85 -4.90 l-6.95 0 0 26.25 0 26.25 9 0 8.95 0 0.15 -18.10z m-28.60 -49.65 l0 -5.75 -9 0 -9 0 0 5.75 0 5.75 9 0 9 0 0 -5.75z"/>
  <path d="M133.50 232.15 c0.05 -4.65 2.90 -8.55 7.15 -9.70 2.80 -0.75 9.70 -0.35 11.70 0.70 2.25 1.20 3.60 3.40 4.25 6.80 0.90 4.80 1.60 4.55 -11.60 4.55 l-11.50 0 0 -2.35z"/>
  <path d="M290.20 256 c-1.95 -0.75 -2.70 -2.50 -2.70 -6.05 0 -3.05 0.15 -3.50 1.50 -4.85 2.30 -2.30 5.40 -3.15 12.65 -3.45 l6.35 -0.30 0 4.05 c0 4.40 -0.50 6.20 -2.15 8.05 -2.05 2.25 -4.65 3.05 -9.85 3 -2.60 0 -5.25 -0.20 -5.80 -0.45z"/>
  <path d="M66.50 217.75 l0 -8.25 9.50 0 c10.70 0 12.30 0.35 14 3.10 1.40 2.30 1.40 8 0 10.30 -1.70 2.75 -3.30 3.10 -14 3.10 l-9.50 0 0 -8.25z"/>
 </g>
 <g fill="#db4a2b">
  <path d="M308 302.30 c0 -0.35 0.70 -4.40 1.50 -8.95 0.85 -4.60 1.50 -8.45 1.50 -8.60 0 -0.15 1.80 -0.25 4 -0.25 l4 0 0 5.70 c0 3.15 0.20 5.85 0.40 6 0.25 0.15 0.70 -0.60 1.10 -1.60 0.35 -1 1.30 -3.70 2.10 -5.95 l1.50 -4.15 3.95 0 c2.15 0 3.95 0.20 3.95 0.40 0 0.20 -0.65 4.20 -1.50 8.85 -0.80 4.70 -1.50 8.65 -1.50 8.90 0 0.20 -1.15 0.35 -2.55 0.35 -2.40 0 -2.55 -0.05 -2.30 -1.10 0.70 -2.85 1.90 -10 1.75 -10.20 -0.15 -0.10 -1.20 2.40 -2.40 5.55 l-2.20 5.75 -2.90 0 -2.90 0 -0.05 -2.85 c-0.05 -1.60 -0.20 -4.35 -0.40 -6.15 l-0.35 -3.25 -0.95 6.15 -1 6.10 -2.35 0 c-1.70 0 -2.40 -0.20 -2.40 -0.70z"/>
  <path d="M336.75 301.90 c1.25 -5.40 1.25 -5.70 -1.05 -11.45 -1.20 -3 -2.20 -5.55 -2.20 -5.70 0 -0.20 1.15 -0.25 2.55 -0.15 l2.55 0.15 1.15 3.15 c0.65 1.75 1.25 3.30 1.40 3.40 0.15 0.15 1.25 -1.30 2.40 -3.25 l2.20 -3.55 2.65 0 c1.40 0 2.60 0.05 2.60 0.15 0 0.10 -1.90 2.75 -4.20 5.85 -3.80 5.15 -4.25 6 -4.80 9.10 l-0.60 3.40 -2.45 0 c-2.30 0 -2.45 -0.05 -2.20 -1.10z"/>
  <path d="M354 302.35 c0 -0.40 0.70 -4.45 1.50 -9 0.85 -4.60 1.50 -8.45 1.50 -8.60 0 -0.45 8.70 -0.25 10.60 0.25 1.05 0.30 2.50 1.30 3.40 2.35 1.55 1.75 1.60 1.90 1.40 5.70 -0.15 3.40 -0.35 4.10 -1.70 5.80 -2.45 3.05 -4.55 3.85 -11.05 4.05 -4.75 0.20 -5.65 0.10 -5.65 -0.55z m11.85 -5 c1 -1 1.35 -1.90 1.55 -4.10 0.30 -3.65 -0.60 -4.75 -3.90 -4.75 l-2.35 0 -0.80 4.90 c-0.50 2.65 -0.85 5.10 -0.85 5.40 0 1.05 4.95 -0.05 6.35 -1.45z"/>
  <path d="M371.50 302.70 c0 -0.20 2.10 -4.35 4.65 -9.25 l4.60 -8.95 3.10 0 c2.85 0 3.15 0.10 3.40 1.15 0.10 0.60 0.80 4.45 1.50 8.55 0.75 4.15 1.35 7.75 1.40 8 0.05 0.30 -1 0.60 -2.45 0.70 l-2.60 0.15 -0.40 -2.40 -0.45 -2.40 -2.75 0 -2.75 0 -1.25 2.35 c-1.20 2.35 -1.30 2.40 -3.60 2.40 -1.35 0 -2.40 -0.15 -2.40 -0.30z m11.90 -10.30 c-0.20 -2.50 -0.80 -2.45 -2 0.20 l-0.85 1.90 1.50 0 c1.45 0 1.50 -0.05 1.35 -2.10z"/>
  <path d="M395.50 302.50 c0 -0.75 2 -12 2.30 -13.10 0.25 -0.80 -0.10 -0.90 -2.85 -0.90 l-3.05 0 0.30 -1.55 c0.15 -0.85 0.30 -1.75 0.30 -2 0 -0.25 3.85 -0.45 8.50 -0.45 l8.50 0 -0.30 1.40 c-0.15 0.75 -0.35 1.65 -0.50 2 -0.10 0.40 -1.20 0.60 -3.05 0.60 l-2.95 0 -1.25 7.15 -1.25 7.10 -2.35 0.15 c-1.45 0.10 -2.35 -0.05 -2.35 -0.40z"/>
  <path d="M405.60 302.60 c0.10 -0.25 2.25 -4.40 4.80 -9.25 l4.70 -8.85 3.10 0 3.15 0 1.35 8.15 c0.80 4.45 1.50 8.60 1.65 9.25 0.25 1.05 0.10 1.10 -2.30 1.10 -2.75 0 -2.75 0 -3.30 -3.10 l-0.30 -1.90 -2.70 0 -2.75 0 -1.25 2.50 -1.25 2.50 -2.55 0 c-1.40 0 -2.45 -0.20 -2.35 -0.40z m12.10 -10.45 c-0.15 -1.35 -0.40 -2.50 -0.50 -2.55 -0.20 -0.25 -2.20 3.75 -2.20 4.40 0 0.25 0.70 0.50 1.55 0.50 l1.50 0 -0.35 -2.35z"/>
  <path d="M141 267.90 c-11.45 -0.85 -20.40 -6.10 -24.25 -14.20 -4 -8.50 -3.65 -22.75 0.75 -30.45 3.20 -5.60 9.80 -10.25 17.30 -12.10 5.15 -1.25 16.65 -1.10 21.85 0.30 10.95 2.90 17.35 9.65 19.15 20.20 0.40 2.35 0.70 5.85 0.60 7.70 l-0.15 3.40 -20.60 0.15 -20.65 0.10 0 1.65 c0 2.75 1.45 6.20 3.25 7.80 1.55 1.35 5.20 2.55 7.75 2.55 2.30 0 6.15 -1.20 7.50 -2.35 0.90 -0.75 1.75 -2.15 2.15 -3.55 0.40 -1.30 0.95 -2.35 1.30 -2.30 0.30 0.05 4.85 0.10 10.10 0.15 l9.60 0.05 -0.35 2.55 c-0.60 4.40 -2.20 7.80 -5.05 10.75 -5.90 6.05 -16.30 8.65 -30.25 7.60z m14.15 -35.25 c0.10 -0.25 0 -1.35 -0.25 -2.50 -1.75 -8.40 -15.30 -9 -18.95 -0.90 -1.80 3.90 -2.20 3.75 9 3.75 5.50 0 10.10 -0.15 10.20 -0.35z"/>
  <path d="M204.50 268 c-16.10 -1.25 -25.50 -10.85 -26.30 -26.70 -0.85 -15.80 6.25 -26.25 20.10 -29.80 11.55 -2.95 25.80 -0.90 33.55 4.85 4.70 3.45 7.30 8.20 7.95 14.35 l0.35 3.30 -10.20 -0.10 -10.15 -0.15 -0.40 -2.15 c-0.75 -4.60 -3.55 -6.65 -9.40 -7 -4.95 -0.25 -7.60 1.05 -9.50 4.65 -1.15 2.35 -1.25 2.95 -1.25 10 0 6.80 0.10 7.70 1.10 9.60 2.10 3.90 5.50 5.45 11 5 5 -0.40 8.30 -3.10 8.95 -7.40 l0.30 -1.90 9.50 -0.15 c7.55 -0.10 9.60 0 9.80 0.50 0.45 1.25 -0.90 7.65 -2.20 10.15 -4.75 9.45 -17 14.20 -33.20 12.95z"/>
  <path d="M282.85 268 c-2.85 -0.30 -4.75 -0.80 -7.10 -1.95 -5.90 -2.90 -8.10 -7.20 -7.65 -15.05 0.40 -6.55 2.80 -10.45 8.40 -13.65 4.45 -2.50 10.90 -3.75 22.25 -4.25 l7.50 -0.35 -0.05 -2.30 c-0.05 -4.60 -2.55 -6.65 -8.15 -6.70 -4.50 0 -6.85 1.10 -7.45 3.45 l-0.40 1.50 -10.25 0.05 -10.20 0 0.05 -2.75 c0.15 -6.85 6.55 -12.55 16.70 -14.80 5.80 -1.30 19.50 -1.15 24.70 0.25 8.10 2.15 12.70 5.30 14.85 10.20 1.10 2.45 1.20 3.30 1.45 16.65 0.20 10.85 0.40 14.25 0.95 14.85 0.45 0.60 1.45 0.85 3.35 0.85 l2.70 0 0 6.20 0 6.15 -3 0.85 c-3.55 1 -11.80 1.15 -15.10 0.30 -2.95 -0.80 -6.10 -2.70 -7.40 -4.50 l-1.05 -1.50 -2.60 1.75 c-1.45 0.95 -4.10 2.30 -5.95 3 -3.05 1.10 -4.65 1.40 -10.90 1.95 -0.95 0.10 -3.50 0 -5.65 -0.20z m18.40 -13.95 c3.70 -1.70 5.25 -4.25 5.25 -8.65 l0 -2.55 -4.85 0.30 c-5.75 0.35 -9.10 1.35 -11.15 3.45 -2.45 2.40 -1.80 6.70 1.20 7.90 1.95 0.80 7.40 0.55 9.55 -0.45z"/>
  <path d="M44.50 230.75 l0 -36.25 23.90 0 c26.35 0 28.25 0.20 33.60 3.05 3.65 1.95 7.65 6.10 9.25 9.55 4.80 10.55 0.60 23.45 -9.10 28.20 -1.45 0.75 -2.65 1.40 -2.65 1.50 0 0.10 3.50 6.75 7.75 14.75 4.25 8 7.75 14.75 7.75 15 0 0.25 -5.45 0.45 -12.95 0.45 l-12.90 0 -2.55 -5.35 c-1.35 -3 -4.25 -8.95 -6.35 -13.25 l-3.90 -7.90 -4.15 0 -4.20 0 0 13.25 0 13.25 -11.75 0 -11.75 0 0 -36.25z m41.25 -6.95 c4.90 -2.05 4.90 -10.05 0 -12.10 -1.25 -0.50 -3.90 -0.70 -9.75 -0.70 l-8 0 0 6.75 0 6.75 8 0 c5.85 0 8.50 -0.20 9.75 -0.70z"/>
  <path d="M242.95 266.80 c-0.10 -0.10 -0.15 -17.35 -0.05 -38.25 l0.10 -38.05 10.50 0 10.50 0 0 38.25 0 38.25 -10.40 0 c-5.75 0 -10.55 -0.10 -10.65 -0.20z"/>
  <path d="M336 239.25 l0 -27.75 10.50 0 10.50 0 0 27.75 0 27.75 -10.50 0 -10.50 0 0 -27.75z"/>
  <path d="M364.45 266.80 c-0.10 -0.10 -0.15 -12.60 -0.05 -27.75 l0.10 -27.55 8.45 0 c9.60 0 8.65 -0.50 9.35 4.90 0.15 1.40 0.50 2.60 0.65 2.60 0.20 0 1.15 -0.80 2.10 -1.80 8.30 -8.60 24.10 -9.50 31.05 -1.80 1 1.10 2.05 2.50 2.40 3.05 0.50 1 0.65 0.95 3 -1.40 5.10 -5.10 13.15 -7.75 20.30 -6.65 6.75 1.05 11.40 4.60 13.80 10.55 1.10 2.75 1.15 3.30 1.30 24.45 l0.15 21.60 -10.50 0 -10.55 0 0 -18.05 c0 -15.75 -0.10 -18.25 -0.80 -19.80 -1.15 -2.40 -2.85 -3.35 -5.95 -3.35 -2.10 0 -3 0.25 -4.50 1.40 -3.45 2.65 -3.50 3 -3.65 22.30 l-0.10 17.25 -10.40 0 -10.35 0 -0.15 -18.20 c-0.15 -19.45 -0.25 -20.15 -2.75 -21.75 -3.20 -2.10 -8.05 -1 -10.40 2.25 l-1.20 1.70 -0.15 18.15 -0.15 18.10 -10.40 0 c-5.70 0 -10.50 -0.10 -10.60 -0.20z"/>
  <path d="M336 197.75 l0 -7.25 10.50 0 10.50 0 0 7.25 0 7.25 -10.50 0 -10.50 0 0 -7.25z"/>
 </g>
</svg>