<?xml version="1.0" encoding="UTF-8"?>
<svg version="1.1" xmlns="http://www.w3.org/2000/svg" width="500" height="500">
<path d="M0 0 C165 0 330 0 500 0 C500 165 500 330 500 500 C335 500 170 500 0 500 C0 335 0 170 0 0 Z " fill="#FEFEFE" transform="translate(0,0)"/>
<path d="M0 0 C12.6225 -0.12375 12.6225 -0.12375 25.5 -0.25 C28.14193359 -0.28641602 30.78386719 -0.32283203 33.50585938 -0.36035156 C35.61848133 -0.37204271 37.73111236 -0.38223353 39.84375 -0.390625 C41.46651855 -0.4213208 41.46651855 -0.4213208 43.12207031 -0.45263672 C51.29976393 -0.45638452 56.55816285 1.09355974 62.8125 6.375 C67.77987438 12.33584926 68.60599714 17.14475031 68.4140625 24.8046875 C67.60492059 31.04882038 64.41819122 34.92616993 59.8125 39 C57 41 57 41 55 41 C59.41827265 49.9398296 63.9043568 58.8056062 68.75 67.5234375 C70 70 70 70 70 72 C61.42 72 52.84 72 44 72 C41.9951721 68.04404494 39.99594939 64.08543111 38 60.125 C37.42765625 58.99707031 36.8553125 57.86914062 36.265625 56.70703125 C35.72421875 55.63066406 35.1828125 54.55429688 34.625 53.4453125 C34.12226562 52.45031738 33.61953125 51.45532227 33.1015625 50.43017578 C32 48 32 48 32 46 C29.03 46 26.06 46 23 46 C23 54.58 23 63.16 23 72 C15.41 72 7.82 72 0 72 C0 48.24 0 24.48 0 0 Z " fill="#DA4B2D" transform="translate(45,195)"/>
<path d="M0 0 C2.4375 2.0625 2.4375 2.0625 4 4 C4 4.66 4 5.32 4 6 C4.66386719 5.51789063 5.32773437 5.03578125 6.01171875 4.5390625 C6.89472656 3.90742188 7.77773438 3.27578125 8.6875 2.625 C9.55761719 1.99851563 10.42773438 1.37203125 11.32421875 0.7265625 C17.18792794 -3.05702796 22.14729091 -3.67561921 29 -3 C35.57284529 -1.06047188 38.70419705 2.09246012 42.12252808 7.9105835 C43.11477241 10.27329348 43.24173476 11.93815201 43.22705078 14.49316406 C43.22689972 15.37377502 43.22674866 16.25438599 43.22659302 17.16168213 C43.21627045 18.10348328 43.20594788 19.04528442 43.1953125 20.015625 C43.1924826 20.98659119 43.18965271 21.95755737 43.18673706 22.95794678 C43.17555292 26.05542385 43.15045142 29.1526105 43.125 32.25 C43.11496792 34.35155832 43.10584247 36.45312118 43.09765625 38.5546875 C43.07732197 43.70332658 43.03816965 48.85133865 43 54 C36.07 54 29.14 54 22 54 C21.95101562 51.28007812 21.90203125 48.56015625 21.8515625 45.7578125 C21.79758683 43.12998851 21.74026599 40.50225739 21.68261719 37.87451172 C21.64428223 36.04515471 21.60943737 34.21572115 21.578125 32.38623047 C21.53257195 29.75981241 21.47456269 27.13392341 21.4140625 24.5078125 C21.40251129 23.68693146 21.39096008 22.86605042 21.37905884 22.02029419 C21.4427456 17.5375356 21.4427456 17.5375356 19 14 C15.28188409 13.58687601 12.95256967 13.34412539 9.81152344 15.50683594 C7.29801912 18.96612247 7.39722928 22.1437953 7.390625 26.265625 C7.37408875 27.05902283 7.35755249 27.85242065 7.34051514 28.66986084 C7.29204384 31.19665269 7.27066713 33.72284281 7.25 36.25 C7.22183943 37.96617609 7.19191188 39.68232416 7.16015625 41.3984375 C7.08296558 45.5992348 7.04244309 49.79813369 7 54 C0.07 54 -6.86 54 -14 54 C-14.04898438 51.28007812 -14.09796875 48.56015625 -14.1484375 45.7578125 C-14.20241317 43.12998851 -14.25973401 40.50225739 -14.31738281 37.87451172 C-14.35571777 36.04515471 -14.39056263 34.21572115 -14.421875 32.38623047 C-14.46742805 29.75981241 -14.52543731 27.13392341 -14.5859375 24.5078125 C-14.59748871 23.68693146 -14.60903992 22.86605042 -14.62094116 22.02029419 C-14.5572544 17.5375356 -14.5572544 17.5375356 -17 14 C-21.72890618 13.46363559 -21.72890618 13.46363559 -25.875 15.375 C-28.42536402 19.05885914 -28.22034228 22.51030478 -28.31640625 26.8515625 C-28.33718735 27.62559418 -28.35796844 28.39962585 -28.37937927 29.19711304 C-28.44483448 31.67298392 -28.50374087 34.14896202 -28.5625 36.625 C-28.60568907 38.30209448 -28.64930348 39.97917807 -28.69335938 41.65625 C-28.80131342 45.77072498 -28.90041614 49.88527977 -29 54 C-35.93 54 -42.86 54 -50 54 C-50 35.52 -50 17.04 -50 -2 C-44.06 -2 -38.12 -2 -32 -2 C-31.34 0.31 -30.68 2.62 -30 5 C-29.175 4.236875 -28.35 3.47375 -27.5 2.6875 C-19.2813001 -4.08763434 -9.31267588 -5.11284166 0 0 Z " fill="#DA4C2E" transform="translate(414,213)"/>
<path d="M0 0 C0.86625 0.7425 1.7325 1.485 2.625 2.25 C3.91857422 3.32894531 3.91857422 3.32894531 5.23828125 4.4296875 C9.49854166 9.62187988 8.41306386 17.24050405 8.4375 23.625 C8.46066369 25.04300688 8.48603293 26.46097954 8.51367188 27.87890625 C8.57628026 31.33591045 8.60880753 34.79243093 8.625 38.25 C10.935 38.91 13.245 39.57 15.625 40.25 C15.625 44.21 15.625 48.17 15.625 52.25 C8.92694606 54.92922158 1.12027172 55.88593749 -5.84375 53.3515625 C-7.75 52.25 -7.75 52.25 -10.375 50.25 C-10.375 49.59 -10.375 48.93 -10.375 48.25 C-11.05046875 48.59933594 -11.7259375 48.94867188 -12.421875 49.30859375 C-13.31390625 49.76363281 -14.2059375 50.21867187 -15.125 50.6875 C-16.00671875 51.13996094 -16.8884375 51.59242188 -17.796875 52.05859375 C-22.60633374 54.28114665 -26.9920305 54.4614094 -32.25 54.5 C-32.94480469 54.520625 -33.63960938 54.54125 -34.35546875 54.5625 C-39.13591349 54.59851088 -42.32346005 53.77095819 -46.375 51.25 C-51.18020726 46.05518134 -51.74406111 41.84021659 -51.64453125 34.97265625 C-51.25349153 31.02258837 -50.10389329 29.11533795 -47.375 26.25 C-37.23879833 18.05866772 -25.71414313 18.99500049 -13.375 19.25 C-14.2354139 14.91770285 -14.2354139 14.91770285 -16.375 11.25 C-18.39464199 11.17755947 -20.41667124 11.16622812 -22.4375 11.1875 C-23.54222656 11.19652344 -24.64695312 11.20554688 -25.78515625 11.21484375 C-26.63980469 11.22644531 -27.49445313 11.23804688 -28.375 11.25 C-28.705 12.57 -29.035 13.89 -29.375 15.25 C-36.305 15.25 -43.235 15.25 -50.375 15.25 C-48.95353695 5.29975863 -48.95353695 5.29975863 -44.6796875 1.90234375 C-32.75681827 -6.11637026 -12.74916536 -6.61067833 0 0 Z " fill="#DA4D2F" transform="translate(319.375,213.75)"/>
<path d="M0 0 C0.62132812 0.25523437 1.24265625 0.51046875 1.8828125 0.7734375 C7.3520283 3.35414972 10.32664319 7.68745068 13 13 C15.07313223 18.85238285 15 23.6599855 15 30 C1.14 30 -12.72 30 -27 30 C-25.12555779 38.69302969 -25.12555779 38.69302969 -21 41 C-18.85209071 41.31600189 -18.85209071 41.31600189 -16.5625 41.25 C-15.80066406 41.25515625 -15.03882813 41.2603125 -14.25390625 41.265625 C-11.65080588 40.95884714 -10.14847207 40.51442193 -8 39 C-7.34 37.35 -6.68 35.7 -6 34 C0.6 34 7.2 34 14 34 C12.84798938 44.3680956 12.84798938 44.3680956 8.8828125 48.49609375 C-0.99149065 56.38324461 -14.05315175 55.89364222 -26 55 C-33.23591762 53.5597574 -39.26946305 49.64612474 -44 44 C-49.30087303 35.76418032 -49.16245679 25.67692122 -47.52734375 16.28515625 C-45.69442224 9.86444318 -42.24859555 4.98097612 -36.52734375 1.4921875 C-25.39678544 -4.24521369 -11.56796371 -5.51998268 0 0 Z " fill="#DA4D2F" transform="translate(162,213)"/>
<path d="M0 0 C4.00623399 3.26729029 6.99466462 6.39024386 8.66015625 11.38671875 C8.66015625 13.69671875 8.66015625 16.00671875 8.66015625 18.38671875 C1.73015625 18.38671875 -5.19984375 18.38671875 -12.33984375 18.38671875 C-12.99984375 16.07671875 -13.65984375 13.76671875 -14.33984375 11.38671875 C-17.84754556 9.14568704 -21.24890876 8.87535188 -25.33984375 9.38671875 C-28.03975037 11.18665649 -29.88173025 12.47049175 -31.33984375 15.38671875 C-31.48996195 17.80015753 -31.56139745 20.21878305 -31.58984375 22.63671875 C-31.615625 23.94125 -31.64140625 25.24578125 -31.66796875 26.58984375 C-31.32136701 30.60052101 -30.45913224 32.99174204 -28.33984375 36.38671875 C-24.64274092 38.23527017 -20.37575367 37.85616223 -16.33984375 37.38671875 C-13.66830335 35.88392699 -13.66830335 35.88392699 -12.33984375 33.38671875 C-12.00984375 31.73671875 -11.67984375 30.08671875 -11.33984375 28.38671875 C-4.73984375 28.38671875 1.86015625 28.38671875 8.66015625 28.38671875 C7.21384196 41.40354738 7.21384196 41.40354738 1.640625 46.08203125 C-5.61274455 51.19769564 -12.45769202 52.76200727 -21.21484375 52.69921875 C-22.00987305 52.6950293 -22.80490234 52.69083984 -23.62402344 52.68652344 C-32.0109276 52.52477354 -38.73812408 50.81479937 -45.33984375 45.38671875 C-52.47335627 37.5518297 -53.94329152 29.72935947 -53.77734375 19.25390625 C-52.89841845 11.4848344 -49.62441307 4.80939767 -43.52734375 -0.17578125 C-41.44140625 -1.5 -41.44140625 -1.5 -39.33984375 -2.61328125 C-38.70820313 -2.94972656 -38.0765625 -3.28617188 -37.42578125 -3.6328125 C-25.99431582 -8.46580657 -10.12500471 -6.98101327 0 0 Z " fill="#DA4C2D" transform="translate(231.33984375,215.61328125)"/>
<path d="M0 0 C6.93 0 13.86 0 21 0 C21 25.08 21 50.16 21 76 C14.07 76 7.14 76 0 76 C0 50.92 0 25.84 0 0 Z " fill="#DA4C2D" transform="translate(243,191)"/>
<path d="M0 0 C6.93 0 13.86 0 21 0 C21 18.48 21 36.96 21 56 C14.07 56 7.14 56 0 56 C0 37.52 0 19.04 0 0 Z " fill="#DA4C2D" transform="translate(336,211)"/>
<path d="M0 0 C1.89453125 2.53515625 1.89453125 2.53515625 3 5 C2.34 5 1.68 5 1 5 C0.1558062 8.97977076 -0.44687265 12.97007218 -1 17 C2.20144328 18.60072164 5.51860403 18.35415353 9 18 C11.94707246 17.1155391 11.94707246 17.1155391 14 15 C15.36900354 11.42003741 15.36900354 11.42003741 16 8 C18 10 18 10 18.125 13.625 C18.08375 14.73875 18.0425 15.8525 18 17 C17.01 16.67 16.02 16.34 15 16 C14.15545644 19.37817425 13.89155081 21.67465243 15 25 C14.34 25 13.68 25 13 25 C12.89816406 25.62390625 12.79632813 26.2478125 12.69140625 26.890625 C12 29 12 29 8.9375 30.75 C4.65050264 32.1660318 0.35427493 32.31968134 -4.125 32.375 C-4.80570557 32.38885742 -5.48641113 32.40271484 -6.18774414 32.41699219 C-10.85369021 32.37386779 -14.03874278 31.43859429 -18 29 C-22.80664114 23.8036312 -23.35887428 19.59324466 -23.27734375 12.7265625 C-22.75515235 7.59290618 -20.11378535 5.08522675 -16.5625 1.625 C-11.29936759 -0.77572706 -5.67612959 -1.22010262 0 0 Z " fill="#DA4D2F" transform="translate(291,236)"/>
<path d="M0 0 C2.64 0 5.28 0 8 0 C8.33 3.3 8.66 6.6 9 10 C10.32 6.7 11.64 3.4 13 0 C15.64 0 18.28 0 21 0 C20.69112547 2.43800966 20.37805338 4.87535367 20.0625 7.3125 C19.97548828 8.00279297 19.88847656 8.69308594 19.79882812 9.40429688 C19.40789865 12.40142288 18.9584996 15.12450119 18 18 C16.35 18 14.7 18 13 18 C13.33 15.03 13.66 12.06 14 9 C12.68 11.97 11.36 14.94 10 18 C8.02 18 6.04 18 4 18 C3.67 16.35 3.34 14.7 3 13 C2.67 14.65 2.34 16.3 2 18 C0.35 18 -1.3 18 -3 18 C-2.51679152 11.7945858 -1.66681876 6.00054754 0 0 Z " fill="#D95337" transform="translate(311,285)"/>
<path d="M0 0 C6.93 0 13.86 0 21 0 C21 4.62 21 9.24 21 14 C14.07 14 7.14 14 0 14 C0 9.38 0 4.76 0 0 Z " fill="#D94D2E" transform="translate(336,191)"/>
<path d="M0 0 C1.91541138 -0.10841951 3.83259773 -0.18578079 5.75 -0.25 C7.35101563 -0.31960938 7.35101563 -0.31960938 8.984375 -0.390625 C12 0 12 0 14.3828125 1.73828125 C16.23178228 4.32415928 16.48134858 5.32214953 16.125 8.4375 C15.46532547 12.24476444 14.37244181 14.8536474 11.09765625 17.203125 C6.60750468 18.90888091 1.71399016 18.34325171 -3 18 C-2.51679152 11.7945858 -1.66681876 6.00054754 0 0 Z " fill="#D85135" transform="translate(357,285)"/>
<path d="M0 0 C2.93804996 -0.08086376 5.87388075 -0.1404283 8.8125 -0.1875 C9.64587891 -0.21263672 10.47925781 -0.23777344 11.33789062 -0.26367188 C12.54155273 -0.27817383 12.54155273 -0.27817383 13.76953125 -0.29296875 C14.87711792 -0.31653442 14.87711792 -0.31653442 16.00708008 -0.34057617 C18.59459753 0.10161259 19.45111348 0.90808714 21 3 C21.65518994 9.11510609 21.65518994 9.11510609 19.7409668 11.70043945 C17.57491851 13.31730596 16.44901095 13.34997896 13.76953125 13.29296875 C12.96708984 13.28330078 12.16464844 13.27363281 11.33789062 13.26367188 C10.50451172 13.23853516 9.67113281 13.21339844 8.8125 13.1875 C7.96751953 13.17396484 7.12253906 13.16042969 6.25195312 13.14648438 C4.16769616 13.11115799 2.08376723 13.05735139 0 13 C0 8.71 0 4.42 0 0 Z " fill="#FEFDFD" transform="translate(68,211)"/>
<path d="M0 0 C2.64 0 5.28 0 8 0 C8.3396019 1.87387477 8.67138691 3.74916697 9 5.625 C9.185625 6.66914063 9.37125 7.71328125 9.5625 8.7890625 C9.98715797 11.90574865 10.07545206 14.85930812 10 18 C8.35 18 6.7 18 5 18 C5 16.35 5 14.7 5 13 C2.05908413 13.18415432 2.05908413 13.18415432 -1 14 C-2.43637698 15.95163118 -2.43637698 15.95163118 -3 18 C-4.65 18 -6.3 18 -8 18 C-6.65150163 13.64029169 -4.95092154 9.68658562 -2.875 5.625 C-2.33617187 4.56539063 -1.79734375 3.50578125 -1.2421875 2.4140625 C-0.83226562 1.61742187 -0.42234375 0.82078125 0 0 Z " fill="#D64F2F" transform="translate(414,285)"/>
<path d="M0 0 C2.31 0 4.62 0 7 0 C7.50904657 1.87256417 8.00682455 3.74819341 8.5 5.625 C8.7784375 6.66914063 9.056875 7.71328125 9.34375 8.7890625 C9.99118596 11.95687418 10.1161292 14.77741467 10 18 C8.35 18 6.7 18 5 18 C5 16.35 5 14.7 5 13 C2.69 13 0.38 13 -2 13 C-2.66 14.65 -3.32 16.3 -4 18 C-5.65 18 -7.3 18 -9 18 C-6 12 -3 6 0 0 Z " fill="#D84B2E" transform="translate(380,285)"/>
<path d="M0 0 C0.29254094 2.92540935 0.51100791 5.1514027 0 8 C-3.16944452 11.16944452 -5.80005376 12.22902212 -10.1875 12.375 C-14 12 -14 12 -17 10 C-16.875 6.6875 -16.875 6.6875 -16 3 C-11.18264821 -0.82917706 -5.85372448 -0.31235289 0 0 Z " fill="#FCF9F8" transform="translate(306,243)"/>
<path d="M0 0 C3.125 2.25 3.125 2.25 5 5 C5 6.32 5 7.64 5 9 C-1.6 9 -8.2 9 -15 9 C-14 4 -14 4 -12.5625 1.6875 C-8.55981367 -0.94841539 -4.64425166 -0.87783109 0 0 Z " fill="#FCF9F9" transform="translate(150,224)"/>
<path d="M0 0 C1.65 0 3.3 0 5 0 C5.66 1.65 6.32 3.3 7 5 C7.556875 4.175 8.11375 3.35 8.6875 2.5 C11 0 11 0 13.75 -0.3125 C14.86375 -0.1578125 14.86375 -0.1578125 16 0 C14.91955907 3.33954468 13.80842426 5.21493863 11.4375 7.875 C8.68944643 11.39814561 8.2638251 13.60291507 8 18 C6.35 18 4.7 18 3 18 C3.0928125 16.329375 3.0928125 16.329375 3.1875 14.625 C3.21538129 9.43908031 1.6739295 4.86236666 0 0 Z " fill="#D75136" transform="translate(334,285)"/>
<path d="M0 0 C5.61 0 11.22 0 17 0 C17 0.99 17 1.98 17 3 C15.02 3.33 13.04 3.66 11 4 C10.86722656 4.84304688 10.73445313 5.68609375 10.59765625 6.5546875 C10.42105469 7.65039062 10.24445313 8.74609375 10.0625 9.875 C9.88847656 10.96554687 9.71445312 12.05609375 9.53515625 13.1796875 C9 16 9 16 8 18 C6.68 18 5.36 18 4 18 C3.80607799 12.47322267 4.2520497 8.24385089 6 3 C4.02 3 2.04 3 0 3 C0 2.01 0 1.02 0 0 Z " fill="#D7583F" transform="translate(392,285)"/>
<path d="M0 0 C-0.99 0.66 -1.98 1.32 -3 2 C-2.01 3.485 -2.01 3.485 -1 5 C-1 6.32 -1 7.64 -1 9 C-0.113125 8.814375 0.77375 8.62875 1.6875 8.4375 C4.85178811 8.01957516 6.94839642 8.19222258 10 9 C10 11.31 10 13.62 10 16 C9.67 16 9.34 16 9 16 C9 14.02 9 12.04 9 10 C1.26767987 10.49330865 1.26767987 10.49330865 -6 13 C-6.33 12.34 -6.66 11.68 -7 11 C-6.34 11 -5.68 11 -5 11 C-4.30840599 9.15274948 -4.30840599 9.15274948 -4 7 C-4.66 6.01 -5.32 5.02 -6 4 C-8.6556728 3.41651248 -8.6556728 3.41651248 -11.625 3.3125 C-12.62789063 3.24675781 -13.63078125 3.18101562 -14.6640625 3.11328125 C-15.43492187 3.07589844 -16.20578125 3.03851563 -17 3 C-11.27901246 0.04335518 -6.34551212 -0.10755105 0 0 Z " fill="#DA5A41" transform="translate(297,233)"/>
<path d="M0 0 C2.64 0 5.28 0 8 0 C8.33 2.97 8.66 5.94 9 9 C8.67 8.34 8.34 7.68 8 7 C4.88214887 7.64644661 4.88214887 7.64644661 4 10 C3.01 10 2.02 10 1 10 C1 9.01 1 8.02 1 7 C-0.32 7.33 -1.64 7.66 -3 8 C-1.125 2.25 -1.125 2.25 0 0 Z " fill="#D84F31" transform="translate(414,285)"/>
<path d="M0 0 C6.6 0 13.2 0 20 0 C18.83657588 10.47081712 18.83657588 10.47081712 15 16 C14.01 16.66 13.02 17.32 12 18 C11.51234892 10.80714661 11.51234892 10.80714661 13.8125 7 C16 5 16 5 19 5 C19 3.68 19 2.36 19 1 C13.06 1 7.12 1 1 1 C0.67 1.66 0.34 2.32 0 3 C0 2.01 0 1.02 0 0 Z " fill="#DB6854" transform="translate(220,244)"/>
<path d="M0 0 C2.375 -0.1875 2.375 -0.1875 5 0 C7 3 7 3 6.75 6.0625 C6 9 6 9 4 11 C1.375 11.125 1.375 11.125 -1 11 C-1.125 3.375 -1.125 3.375 0 0 Z " fill="#F9EEED" transform="translate(361,288)"/>
<path d="M0 0 C2.31 0 4.62 0 7 0 C7.33 1.98 7.66 3.96 8 6 C7.01 6 6.02 6 5 6 C4.67 7.32 4.34 8.64 4 10 C1.03 9.505 1.03 9.505 -2 9 C-3 6 -3 6 -1.5625 2.8125 C-1.046875 1.884375 -0.53125 0.95625 0 0 Z " fill="#D95134" transform="translate(380,285)"/>
<path d="M0 0 C1.20628008 2.33214148 2.1654738 4.49642139 3 7 C4.65 4.69 6.3 2.38 8 0 C8.66 0.33 9.32 0.66 10 1 C7.02407002 10.33041575 7.02407002 10.33041575 2.75 13.125 C1.38875 13.558125 1.38875 13.558125 0 14 C-0.85380428 11.03878992 -1.13517764 8.3912356 -1.125 5.3125 C-1.12757813 4.52488281 -1.13015625 3.73726563 -1.1328125 2.92578125 C-1 1 -1 1 0 0 Z " fill="#DB4B2B" transform="translate(317,288)"/>
<path d="M0 0 C0.66 0.66 1.32 1.32 2 2 C2.99 1.67 3.98 1.34 5 1 C5 2.65 5 4.3 5 6 C5.99 6.33 6.98 6.66 8 7 C7.67 7.33 7.34 7.66 7 8 C8.32 8.66 9.64 9.32 11 10 C7.04 10 3.08 10 -1 10 C-0.67 6.7 -0.34 3.4 0 0 Z " fill="#D85437" transform="translate(355,293)"/>
<path d="M0 0 C-0.99 0 -1.98 0 -3 0 C-3 0.99 -3 1.98 -3 3 C-4.134375 3.12375 -5.26875 3.2475 -6.4375 3.375 C-8.2009375 3.684375 -8.2009375 3.684375 -10 4 C-10.33 4.66 -10.66 5.32 -11 6 C-11.66 6 -12.32 6 -13 6 C-13.66 7.32 -14.32 8.64 -15 10 C-15.33 9.67 -15.66 9.34 -16 9 C-16.33 9.66 -16.66 10.32 -17 11 C-17.66 10.67 -18.32 10.34 -19 10 C-14.91350287 4.04052502 -7.55580136 -2.34490387 0 0 Z " fill="#DB5B44" transform="translate(201,212)"/>
<path d="M0 0 C5.61 0 11.22 0 17 0 C13.09090909 3.90909091 13.09090909 3.90909091 10 5 C7.3125 4.75 7.3125 4.75 5 4 C4.67 3.34 4.34 2.68 4 2 C2.68 1.34 1.36 0.68 0 0 Z " fill="#DA654C" transform="translate(201,210)"/>
<path d="M0 0 C-0.99 0.66 -1.98 1.32 -3 2 C-2.01 3.485 -2.01 3.485 -1 5 C-6.28 4.34 -11.56 3.68 -17 3 C-11.11529226 0.05764613 -6.45859385 -0.10946769 0 0 Z " fill="#DC614A" transform="translate(297,233)"/>
<path d="M0 0 C0.99 0 1.98 0 3 0 C3.0270043 1.45823212 3.04639787 2.91660675 3.0625 4.375 C3.07410156 5.18710937 3.08570313 5.99921875 3.09765625 6.8359375 C3 9 3 9 2 11 C0.68 11 -0.64 11 -2 11 C-1.855625 10.29875 -1.71125 9.5975 -1.5625 8.875 C-0.98521625 5.92443859 -0.48304859 2.96729849 0 0 Z " fill="#D94E2E" transform="translate(398,292)"/>
<path d="M0 0 C0.66 0.33 1.32 0.66 2 1 C1.67 2.32 1.34 3.64 1 5 C1.66 5.33 2.32 5.66 3 6 C2.34 7.32 1.68 8.64 1 10 C-0.65 10 -2.3 10 -4 10 C-2.8905928 6.51329166 -1.73662334 3.22515763 0 0 Z " fill="#D9553D" transform="translate(410,293)"/>
<path d="M0 0 C0 0.33 0 0.66 0 1 C-4.95 1 -9.9 1 -15 1 C-15 1.66 -15 2.32 -15 3 C-16.45463481 3.38909985 -17.91391207 3.76088029 -19.375 4.125 C-20.18710937 4.33382812 -20.99921875 4.54265625 -21.8359375 4.7578125 C-22.55007813 4.83773437 -23.26421875 4.91765625 -24 5 C-24.66 4.34 -25.32 3.68 -26 3 C-17.34796755 -0.49409003 -9.15244471 -0.30659554 0 0 Z " fill="#D86B53" transform="translate(305,210)"/>
<path d="M0 0 C2.97 0 5.94 0 9 0 C9 0.99 9 1.98 9 3 C2.375 5 2.375 5 -1 5 C-0.67 3.35 -0.34 1.7 0 0 Z " fill="#D64D2E" transform="translate(400,285)"/>
<path d="M0 0 C0.33 0 0.66 0 1 0 C1 4.29 1 8.58 1 13 C1.66 12.01 2.32 11.02 3 10 C3.66 11.32 4.32 12.64 5 14 C3.68 15.65 2.36 17.3 1 19 C-0.26582219 15.13276369 -0.1118765 11.26848738 -0.0625 7.25 C-0.05798828 6.55261719 -0.05347656 5.85523438 -0.04882812 5.13671875 C-0.0371002 3.42444197 -0.01916653 1.71220967 0 0 Z " fill="#DE654E" transform="translate(178,231)"/>
<path d="M0 0 C0.33 0 0.66 0 1 0 C1.33 2.97 1.66 5.94 2 9 C1.67 8.34 1.34 7.68 1 7 C-2.11785113 7.64644661 -2.11785113 7.64644661 -3 10 C-3.99 10 -4.98 10 -6 10 C-5.67 8.35 -5.34 6.7 -5 5 C-3.68 4.67 -2.36 4.34 -1 4 C-0.67 2.68 -0.34 1.36 0 0 Z " fill="#E28E7C" transform="translate(421,285)"/>
<path d="M0 0 C2.09350689 3.4019487 2.17942163 6.05272412 2 10 C0.35 10 -1.3 10 -3 10 C-3 8.68 -3 7.36 -3 6 C-2.01 6 -1.02 6 0 6 C-0.33 5.01 -0.66 4.02 -1 3 C-0.67 2.01 -0.34 1.02 0 0 Z " fill="#D95B41" transform="translate(388,293)"/>
<path d="M0 0 C4.55737263 0.43820891 7.57653445 0.85041169 11 4 C8.13411489 5.43294255 6.09628564 4.56870553 3 4 C2.01 4 1.02 4 0 4 C0 2.68 0 1.36 0 0 Z " fill="#D55940" transform="translate(218,211)"/>
<path d="M0 0 C2 4 2 4 3 7 C4.32 6.67 5.64 6.34 7 6 C6.67 6.99 6.34 7.98 6 9 C4.02 9 2.04 9 0 9 C0 6.03 0 3.06 0 0 Z " fill="#D3664E" transform="translate(315,294)"/>
<path d="M0 0 C0.66 0 1.32 0 2 0 C1.67 1.32 1.34 2.64 1 4 C0.34 3.67 -0.32 3.34 -1 3 C-0.67 2.01 -0.34 1.02 0 0 Z M-4 2 C-3.01 2.33 -2.02 2.66 -1 3 C-1.33 4.65 -1.66 6.3 -2 8 C-2.99 8 -3.98 8 -5 8 C-4.67 6.02 -4.34 4.04 -4 2 Z " fill="#E68F7D" transform="translate(386,287)"/>
<path d="M0 0 C0.99 0.33 1.98 0.66 3 1 C2.01 1.99 1.02 2.98 0 4 C1.65 3.34 3.3 2.68 5 2 C1.25 7.875 1.25 7.875 -1 9 C-1.09765625 2.84765625 -1.09765625 2.84765625 -1 1 C-0.67 0.67 -0.34 0.34 0 0 Z " fill="#D7583B" transform="translate(233,253)"/>
<path d="M0 0 C2.97 0.33 5.94 0.66 9 1 C8.01 1.495 8.01 1.495 7 2 C6.67 2.66 6.34 3.32 6 4 C4.02 4 2.04 4 0 4 C0 2.68 0 1.36 0 0 Z " fill="#D85235" transform="translate(91,195)"/>
<path d="M0 0 C0.33 0.66 0.66 1.32 1 2 C1.99 2.33 2.98 2.66 4 3 C3.01 4.485 3.01 4.485 2 6 C-0.625 6.1875 -0.625 6.1875 -3 6 C-2.01 4.02 -1.02 2.04 0 0 Z " fill="#D4593F" transform="translate(374,297)"/>
<path d="M0 0 C0.66 0.66 1.32 1.32 2 2 C2.99 1.67 3.98 1.34 5 1 C5 2.65 5 4.3 5 6 C5.99 6.33 6.98 6.66 8 7 C6.68 7 5.36 7 4 7 C3.67 6.34 3.34 5.68 3 5 C2.01 5.33 1.02 5.66 0 6 C0 4.02 0 2.04 0 0 Z " fill="#DD624F" transform="translate(355,293)"/>
<path d="M0 0 C1.32 0.33 2.64 0.66 4 1 C3.38125 1.5775 2.7625 2.155 2.125 2.75 C0.18652947 4.80249821 -0.90014249 6.43366582 -2 9 C-3 6 -3 6 -1.5625 2.8125 C-1.046875 1.884375 -0.53125 0.95625 0 0 Z " fill="#D95A41" transform="translate(324,285)"/>
<path d="M0 0 C0.66 1.32 1.32 2.64 2 4 C-0.17424117 6.50037734 -1.73045798 7.43628586 -5 8 C-5 7.34 -5 6.68 -5 6 C-4.01 6 -3.02 6 -2 6 C-1.855625 5.195625 -1.71125 4.39125 -1.5625 3.5625 C-1 1 -1 1 0 0 Z " fill="#D65739" transform="translate(229,258)"/>
<path d="M0 0 C1.98 0.66 3.96 1.32 6 2 C6 3.32 6 4.64 6 6 C5.01 6.33 4.02 6.66 3 7 C2.01 4.69 1.02 2.38 0 0 Z " fill="#DA543D" transform="translate(80,248)"/>
<path d="M0 0 C1.65 0 3.3 0 5 0 C3.02 0.99 3.02 0.99 1 2 C1.33 3.65 1.66 5.3 2 7 C0.68 6.67 -0.64 6.34 -2 6 C-2 4.68 -2 3.36 -2 2 C-1.34 2 -0.68 2 0 2 C0 1.34 0 0.68 0 0 Z " fill="#D8583E" transform="translate(99,234)"/>
<path d="M0 0 C0.66 0.99 1.32 1.98 2 3 C1.125 5.6875 1.125 5.6875 0 8 C-0.33 7.01 -0.66 6.02 -1 5 C-3.01508358 4.26676204 -3.01508358 4.26676204 -5 4 C-3.35 2.68 -1.7 1.36 0 0 Z " fill="#DC523C" transform="translate(423,215)"/>
<path d="M0 0 C0.66 0.33 1.32 0.66 2 1 C1.34 2.65 0.68 4.3 0 6 C-0.99 5.67 -1.98 5.34 -3 5 C-3.33 5.66 -3.66 6.32 -4 7 C-4.66 6.67 -5.32 6.34 -6 6 C-4 4 -2 2 0 0 Z " fill="#D85E45" transform="translate(277,214)"/>
<path d="M0 0 C2.97 0.495 2.97 0.495 6 1 C5.67 3.64 5.34 6.28 5 9 C4.67 9 4.34 9 4 9 C3.67 7.35 3.34 5.7 3 4 C2.34 4 1.68 4 1 4 C0.67 2.68 0.34 1.36 0 0 Z " fill="#D45743" transform="translate(337,294)"/>
<path d="M0 0 C2.475 0.99 2.475 0.99 5 2 C4.01 2.495 4.01 2.495 3 3 C2.67 3.99 2.34 4.98 2 6 C0.68 6 -0.64 6 -2 6 C-1.34 4.02 -0.68 2.04 0 0 Z " fill="#D95F48" transform="translate(413,287)"/>
<path d="M0 0 C2 3 2 3 2 5 C-0.31 5.33 -2.62 5.66 -5 6 C-5 5.34 -5 4.68 -5 4 C-4.01 3.67 -3.02 3.34 -2 3 C-1.34 2.01 -0.68 1.02 0 0 Z " fill="#E2452E" transform="translate(379,212)"/>
<path d="M0 0 C-0.99 0 -1.98 0 -3 0 C-3 0.99 -3 1.98 -3 3 C-5.64 3 -8.28 3 -11 3 C-7.18178484 -0.02823961 -4.81391924 -1.49397494 0 0 Z " fill="#D8694D" transform="translate(201,212)"/>
<path d="M0 0 C0.79921875 0.00902344 1.5984375 0.01804688 2.421875 0.02734375 C3.02515625 0.03894531 3.6284375 0.05054688 4.25 0.0625 C4.25 0.3925 4.25 0.7225 4.25 1.0625 C-0.28701494 2.51434478 -3.93061476 3.29759196 -8.75 3.0625 C-8.75 2.4025 -8.75 1.7425 -8.75 1.0625 C-5.75519083 0.1901588 -3.11424089 -0.04579766 0 0 Z " fill="#DA6250" transform="translate(402.75,209.9375)"/>
<path d="M0 0 C0.99928333 2.698065 1.03624754 3.88010429 0.1875 6.6875 C-1 9 -1 9 -3 10 C-2.39009109 6.44219804 -1.4216319 3.3171411 0 0 Z " fill="#F5D6D0" transform="translate(325,292)"/>
<path d="M0 0 C0.99 0.33 1.98 0.66 3 1 C2.67 2.65 2.34 4.3 2 6 C1.01 5.34 0.02 4.68 -1 4 C-0.67 2.68 -0.34 1.36 0 0 Z " fill="#D8492A" transform="translate(327,290)"/>
<path d="M0 0 C0.98120464 3.05263664 0.98120464 4.94736336 0 8 C-0.66 7.67 -1.32 7.34 -2 7 C-2 6.34 -2 5.68 -2 5 C-2.66 5 -3.32 5 -4 5 C-2.93453047 2.86906094 -1.70840281 1.63412443 0 0 Z " fill="#DA6146" transform="translate(344,287)"/>
</svg>
